<?xml version="1.0" encoding="UTF-8" standalone="no" ?>
<!DOCTYPE svg PUBLIC "-//W3C//DTD SVG 1.1//EN" "http://www.w3.org/Graphics/SVG/1.1/DTD/svg11.dtd">
<svg xmlns="http://www.w3.org/2000/svg" xmlns:xlink="http://www.w3.org/1999/xlink" version="1.1" width="1920.0024" height="1080" viewBox="0 0 1920.0024 1080" xml:space="preserve">
<desc>Created with Fabric.js 5.3.0</desc>
<defs>
</defs>
<g transform="matrix(1 0 0 1 1732.6315782151 892.6315782151)" id="1umv20_xqVN8HrUhL1_Si"  >
<path style="stroke: rgb(24,228,23); stroke-width: 0; stroke-dasharray: none; stroke-linecap: butt; stroke-dashoffset: 0; stroke-linejoin: miter; stroke-miterlimit: 4; fill: rgb(255,255,255); fill-rule: nonzero; opacity: 1;"  transform=" translate(-147.3684217849, -147.3684217849)" d="M 147.36842 0 C 228.71578999999997 0 294.73684 66.02105 294.73684 147.36842 C 294.73684 228.71578999999997 228.71578999999997 294.73684 147.36842 294.73684 C 66.02104999999999 294.73684 0 228.71578999999997 0 147.36842 C 0 66.02104999999999 66.02105 0 147.36842 0 z" stroke-linecap="round" />
</g>
<g transform="matrix(1.2972972973 0 0 1.2972972973 1732.6315782151 892.6315782151)" id="uE4elBGbNKzPrgSGPFT5u"  >
<path style="stroke: rgb(53,253,66); stroke-width: 0; stroke-dasharray: none; stroke-linecap: butt; stroke-dashoffset: 0; stroke-linejoin: miter; stroke-miterlimit: 4; fill: rgb(49,168,247); fill-rule: nonzero; opacity: 1;"  transform=" translate(0, 0)" d="M 0 -92.5 C 51.06 -92.5 92.5 -51.06 92.5 0 C 92.5 51.06 51.06 92.5 0 92.5 C -51.06 92.5 -92.5 51.06 -92.5 0 C -92.5 -51.06 -51.06 -92.5 0 -92.5 z" stroke-linecap="round" />
</g>
<g transform="matrix(1 0 0 1 68.6902741489 681.86508)" id="HB2qq533bxxps9PsiYL2s"  >
<path style="stroke: rgb(255,255,255); stroke-width: 5; stroke-dasharray: none; stroke-linecap: butt; stroke-dashoffset: 0; stroke-linejoin: miter; stroke-miterlimit: 4; fill: rgb(49,168,247); fill-rule: nonzero; opacity: 1;"  transform=" translate(0, 0)" d="M 37.52598 139.36508 L -37.52598 139.36508 L -37.52598 -37.94149999999999 L 37.52598 25.03457000000001 z M -37.52598 -139.36508 L 37.52598 -66.11198 L 37.52598 -19.11298 L -37.52598 -82.08905 z" stroke-linecap="round" />
</g>
<g transform="matrix(1 0 0 1 729.9117900015 1040.0000030396)" id="7STGBdqoMIKneUogycqR7"  >
<path style="stroke: rgb(215,128,175); stroke-width: 0; stroke-dasharray: none; stroke-linecap: butt; stroke-dashoffset: 0; stroke-linejoin: miter; stroke-miterlimit: 4; fill: rgb(132,175,79); fill-rule: nonzero; opacity: 1;"  transform=" translate(-0.0247276659, -0.0000030396)" d="M 0.02473 0.00001 C 0.016489999999999998 0.00001 0.008239999999999997 0.00001 0 0 L 0.04946 0 C 0.04121999999999999 0 0.032979999999999995 0.00001 0.02473 0.00001 z" stroke-linecap="round" />
</g>
<g transform="matrix(1 0 0 0.9756097561 200 859.9999999999)" id="rvgro-PnE447jDI6k7EIT"  >
<path style="stroke: rgb(255,255,255); stroke-width: 3; stroke-dasharray: none; stroke-linecap: butt; stroke-dashoffset: 0; stroke-linejoin: miter; stroke-miterlimit: 4; fill: rgb(196,196,196); fill-rule: nonzero; opacity: 1;"  transform=" translate(0, 0)" d="M 0 -60 C 0 -49.34248 20.87481 -40.623329999999996 47.15087 -40.031980000000004 C 43.358999999999995 16.714799999999997 23.68125 59.99999 0.000009999999996068709 59.99999 L 0.000009999999996068709 60 L -3.9312916664440214e-15 60 L -3.9312916664440214e-15 59.99999 C -23.681250000000002 59.99999 -43.358990000000006 16.71481 -47.15086000000001 -40.031980000000004 C -20.874800000000008 -40.62333 -7.105427357601002e-15 -49.34248 -7.105427357601002e-15 -60 z" stroke-linecap="round" />
</g>
<g transform="matrix(1 0 0 1 480 1005.0718121161)" id="LoioZ4ZCJaUZcRTMFXGK5"  >
<path style="stroke: rgb(255,255,255); stroke-width: 5; stroke-dasharray: none; stroke-linecap: butt; stroke-dashoffset: 0; stroke-linejoin: miter; stroke-miterlimit: 4; fill: rgb(49,168,247); fill-rule: nonzero; opacity: 1;"  transform=" translate(-229.655225, -37.62929)" d="M 0 0 L 170.66887 0 L 227.38028 75.25858 L 0 75.25858 z M 306.42456 0 L 363.13597 75.25858 L 269.72623 75.25858 L 213.01482 0 z M 399.22409 0 L 459.31045 74.98899 L 459.31045 75.25858 L 405.48192 75.25858 L 348.77051 0 z" stroke-linecap="round" />
</g>
<g transform="matrix(1.2543096847 0 0 1.2543096847 130.8883089885 942.9622985473)" id="oMcPAOx231-m4qGa2kHjX"  >
<path style="stroke: rgb(255,255,255); stroke-width: 5; stroke-dasharray: none; stroke-linecap: butt; stroke-dashoffset: 0; stroke-linejoin: miter; stroke-miterlimit: 4; fill: rgb(49,168,247); fill-rule: nonzero; opacity: 1;"  transform=" translate(-80.082365, -80.27618)" d="M 0 0 L 60.00612 0 C 60.00204 0.3709 60 0.74229 60 1.11415 C 60 56.00404 104.54831 100.55234999999999 159.4382 100.55234999999999 C 159.68058 100.55234999999999 159.92275999999998 100.55147999999998 160.16473 100.54974999999999 L 160.16473 160.55236 L 57.87862 160.55236 C 25.78973 159.66133 0.022109999999997854 133.421 0.022109999999997854 101.21744 C 0.022109999999997854 100.99546 0.023329999999997852 100.77376 0.025769999999997854 100.55236 L -2.147587663259287e-15 100.55236 z" stroke-linecap="round" />
</g>
<g transform="matrix(-0.0521621689 0 0 6.1339801119 200 861.2027949772)" id="hyqy3kkwPMTKpmZQVrHmy"  >
<path style="stroke: rgb(0,0,0); stroke-width: 0; stroke-dasharray: none; stroke-linecap: butt; stroke-dashoffset: 0; stroke-linejoin: miter; stroke-miterlimit: 4; fill: rgb(255,255,255); fill-rule: nonzero; opacity: 1;"  transform=" translate(0, 0)" d="M -9.58549 -9.58549 L 9.58549 -9.58549 L 9.58549 9.58549 L -9.58549 9.58549 z" stroke-linecap="round" />
</g>
<g transform="matrix(1.2958764678 0 0 1.3829919648 200 730)" id="CiaOdCM8UiLW_c83o_Nmb"  >
<path style="stroke: rgb(255,255,255); stroke-width: 3; stroke-dasharray: none; stroke-linecap: butt; stroke-dashoffset: 0; stroke-linejoin: miter; stroke-miterlimit: 4; fill: rgb(224,29,29); fill-rule: nonzero; opacity: 1;"  transform=" translate(-40, -39.9995)" d="M 60 4.346 C 71 4.346 80 13.973 80 25.738 C 80 58.45 40 74.762 40 75.65299999999999 L 40 75.65299999999999 C 40 74.763 0 58.54 0 25.738 C 0 13.884 9 4.346 20 4.346 C 31.1 4.346 40 10.835 40 22.689 C 40 10.835 48.9 4.346 60 4.346 z" stroke-linecap="round" />
</g>
<g transform="matrix(1 0 0 1 200 917.2194314408)" id="eq6SaNidJnYxPZyDeHrX0"  >
<path style="stroke: rgb(0,0,0); stroke-width: 1; stroke-dasharray: none; stroke-linecap: butt; stroke-dashoffset: 0; stroke-linejoin: miter; stroke-miterlimit: 4; fill: rgb(255,255,255); fill-opacity: 0; fill-rule: nonzero; opacity: 1;"  transform=" translate(0, 0)" d="M 0 0" stroke-linecap="round" />
</g>
</svg>